<svg fill="#FFFFFF" xmlns="http://www.w3.org/2000/svg" xmlns:xlink="http://www.w3.org/1999/xlink" version="1.1" x="0px" y="0px" viewBox="0 0 100 100" enable-background="new 0 0 100 100" xml:space="preserve"><path d="M97.3,44.2l-6.1-4.6l0.9-1.4c0.1-0.2,0.1-0.5,0-0.6L88,32l0.9-4.3c0-0.2,0-0.4-0.2-0.5c-0.1-0.1-0.3-0.2-0.5-0.2l-4.5,0.9  c-0.2,0-0.3,0.1-0.4,0.3L82,30.5h-2.8L71.7,26c0,0-0.1,0-0.1-0.1l-8.7-2.4c0,0,0,0-0.1,0c0,0-0.1,0-0.1,0c0,0-0.1,0-0.1,0  c0,0,0,0-0.1,0c0,0,0,0,0,0c0,0,0,0,0,0l-6.4,3l-24.8-0.7c0,0,0,0,0,0c-0.1,0-0.2,0-0.3,0.1L15,36.9l-4.3-1.7  c-0.2-0.1-0.3-0.1-0.5,0c-0.1,0.1-0.3,0.2-0.3,0.4l-0.8,3.7c0,0.1,0,0.2,0,0.4l1.9,4.3L8.6,56.1L3,67c0,0.1,0,0.1-0.1,0.2  c0,0,0,0,0,0c0,0,0,0,0,0c0,0.1,0,0.1,0,0.2c0,0,0,0,0,0.1c0,0.1,0,0.1,0.1,0.1c0,0,0,0,0,0c0,0,0,0,0,0l4.5,5.7  c0.1,0.1,0.3,0.2,0.5,0.2h7.2c0.2,0,0.5-0.2,0.5-0.4c0.1-0.2,0-0.5-0.2-0.6l-3.1-2.5l-1-1.5l9.8-10l10.4,14.8c0,0,0,0,0,0h0  c0,0,0,0,0,0h0c0.1,0.1,0.2,0.2,0.3,0.2h0c0,0,0,0,0,0c0,0,0,0,0.1,0c0,0,0,0,0,0h0h0c0,0,0,0,0.1,0c0,0,0,0,0,0h11.6  c0.2,0,0.4-0.1,0.5-0.4c0.1-0.2,0-0.5-0.1-0.6l-2.4-2.5c-0.1-0.1-0.1-0.1-0.2-0.1l-3-1.2L37,58.4l11.8-3.6l3.7,9.9  c0,0,0,0.1,0.1,0.1c0,0,0,0,0,0c0,0,0,0,0,0c0,0,0,0,0,0l6.6,8.5c0.1,0.1,0.3,0.2,0.5,0.2h9.1c0.2,0,0.5-0.1,0.5-0.4  c0.1-0.2,0-0.5-0.1-0.6l-2.6-2.5c0,0-0.1-0.1-0.1-0.1L63,68.4l-2-6.1c0,0,0,0,0.1,0.1c0,0,0.1,0,0.1,0c0,0,0,0,0,0l7.1,3l0.2,2.2  c0,0.1,0,0.2,0.1,0.3l2.5,4c0.1,0.1,0.2,0.2,0.4,0.3c0,0,0.1,0,0.1,0c0.1,0,0.2,0,0.3-0.1l2.2-1.6c0.1-0.1,0.2-0.2,0.2-0.4l0.7-6.4  c0,0,0-0.1,0-0.1c0,0,0-0.1,0-0.1c0,0,0,0,0,0c0,0,0-0.1,0-0.1c0,0,0-0.1-0.1-0.1c0,0,0,0,0,0l-7.6-8.6l3.3-8.2l14.8,1.8  c0.2,0,0.4-0.1,0.6-0.3l0.1-0.2L93,49c0,0,0.1,0,0.1,0c0.1,0,0.3-0.1,0.4-0.2l3.8-3.7c0.1-0.1,0.2-0.3,0.2-0.4  C97.5,44.5,97.4,44.3,97.3,44.2z M84.2,29l3.4-0.7L87,31.5l-3.7-0.8L84.2,29z M78.3,31.3l-7.8,13.2L63.6,25l7.6,2.1L78.3,31.3z   M62.4,24.9l7,19.8l-12.6-5.1V27.6L62.4,24.9z M61.4,61l-4.1-4.9l8.2-0.7L61.4,61z M37.7,57l17.9-27.8v22.3L37.7,57z M32,27.1  l23.2,0.7L36.7,56.5L32,27.1z M32.8,39.4l-16.1-2.2l14.2-9.7L32.8,39.4z M15.4,38.2L33,40.6l2.6,16.3L12.4,43.7L15.4,38.2z   M10.9,36.6l3.4,1.3l-2.6,4.8l-1.4-3.2L10.9,36.6z M11.5,70.8c0,0.1,0.1,0.1,0.1,0.1l1.9,1.5H8.3l-3.4-4.3l5.5,0.9L11.5,70.8z   M10.6,67.9l-6.2-1l5.1-9.9l10.7,1.2L10.6,67.9z M9.8,55.8L12,45.4l8.2,11.6L9.8,55.8z M32,71.7l-18.3-26l22.1,12.6L32,71.7z   M41.1,71.1l1.3,1.4h-8.3l4.1-2.6L41.1,71.1z M33.2,71.7l3.1-11l1.3,8.2L33.2,71.7z M55.6,52.7v2.9c0,0,0,0,0,0c0,0,0,0,0,0  c0,0,0,0,0,0.1c0,0,0,0.1,0,0.1c0,0,0,0,0,0.1c0,0,0,0,0,0.1l3.1,3.8l-5.6,3.8l-3.4-9.1L55.6,52.7z M62.3,69.4l3.5,1.7l1.5,1.4h-7.3  l-6.1-7.8l5.5-3.8L62,69C62,69.2,62.1,69.3,62.3,69.4z M71.8,70.7l-2.1-3.3l-0.1-1.9l4.4-1.1l-0.6,5.3L71.8,70.7z M73.5,63.2  l-4.5,1.2l-6.6-2.7l4.4-6.1L73.5,63.2z M66.3,54.1l-9.6,0.8v-14l12.8,5.1L66.3,54.1z M71.3,45.3l8.1-13.7h2.9l4.8,1l3.8,5.3l-5.6,9  L71.3,45.3z M93,47.8l-6.1-1.1l3.8-6l5.5,4.1L93,47.8z"></path></svg>